<svg width="133" height="132" viewBox="0 0 133 132" fill="none" xmlns="http://www.w3.org/2000/svg">
<g clip-path="url(#clip0_856_8945)">
<rect width="133" height="132" rx="66" fill="#FAF9F5"/>
<path d="M93.4434 46.6797V52.8223H74.9209C74.1066 52.8223 73.4156 53.1045 72.8223 53.6836C72.2317 54.2601 71.9444 54.9397 71.9443 55.75V58.1494C71.9443 58.8628 72.2187 59.4749 72.8076 60.0078C73.3988 60.5427 74.0949 60.8085 74.9209 60.8086H86.0137C87.6973 60.8086 89.2389 61.2134 90.626 62.0283H90.625C92.0014 62.8205 93.0979 63.8991 93.9082 65.2588L94.0596 65.5146C94.7923 66.8023 95.1572 68.2197 95.1572 69.7568V73.5518C95.1572 75.1909 94.7411 76.7005 93.9092 78.0703L93.9102 78.0713C93.0991 79.4171 92.0021 80.4962 90.626 81.3047L90.6221 81.3076C89.2355 82.1049 87.6953 82.5 86.0137 82.5H65.8018V76.333H86.0137C86.7495 76.333 87.3704 76.1239 87.8975 75.707L88.1182 75.5156C88.7083 74.9533 88.9912 74.299 88.9912 73.5273V69.7812C88.9912 69.0093 88.7087 68.3544 88.1182 67.792L88.1133 67.7881C87.5405 67.2293 86.8507 66.9512 86.0137 66.9512H74.9209C73.2567 66.9511 71.7193 66.5639 70.3193 65.7861L70.3135 65.7822C68.9374 64.991 67.8318 63.9297 67.0039 62.6016L67.001 62.5977C66.1845 61.2599 65.7774 59.7817 65.7773 58.1748V55.6035C65.7773 53.966 66.1839 52.4639 67 51.1094L67.002 51.1045C67.8295 49.7597 68.9359 48.6896 70.3135 47.8975C71.7143 47.085 73.2534 46.6797 74.9209 46.6797H93.4434Z" fill="#333230" stroke="#333230"/>
<path d="M54.2354 46.6797L54.3545 47.0107L66.8184 81.832L67.0576 82.5H60.4873L60.3672 82.1699L56.6914 72.0195H46.6084L46.8506 71.3496L48.7119 66.207L48.8311 65.8779H54.4688L50.6738 55.4043L40.959 82.1709L40.8398 82.5H34.2695L34.5088 81.832L46.9727 47.0107L47.0908 46.6797H54.2354Z" fill="#333230" stroke="#333230"/>
<rect x="-2" y="114" width="137" height="18" fill="#ECEBE6"/>
<rect x="36" y="96" width="60" height="4" rx="2" fill="#D9D9D9"/>
</g>
<rect x="0.5" y="0.5" width="132" height="131" rx="65.5" stroke="#EBE9E5"/>
<defs>
<clipPath id="clip0_856_8945">
<rect width="133" height="132" rx="66" fill="white"/>
</clipPath>
</defs>
</svg>
